<?xml version="1.0" standalone="no"?>
<!DOCTYPE svg PUBLIC "-//W3C//DTD SVG 20010904//EN"
 "http://www.w3.org/TR/2001/REC-SVG-20010904/DTD/svg10.dtd">
<svg version="1.0" xmlns="http://www.w3.org/2000/svg"
 width="16.000000pt" height="16.000000pt" viewBox="0 0 16.000000 16.000000"
 preserveAspectRatio="xMidYMid meet">
<metadata>
Created by potrace 1.11, written by Peter Selinger 2001-2013
</metadata>
<g transform="translate(0.000000,16.000000) scale(0.022857,-0.022857)"
fill="#000000" stroke="none">
<path d="M250 612 c-70 -26 -145 -107 -165 -177 -56 -190 84 -373 277 -364 29
1 60 6 68 10 77 36 97 50 131 88 100 112 86 290 -29 392 -76 67 -186 87 -282
51z m213 -28 c34 -17 97 -73 97 -85 0 -4 -9 -6 -20 -4 -11 2 -20 -1 -20 -6 0
-6 -9 -8 -20 -4 -46 15 -67 13 -98 -5 -17 -11 -32 -28 -33 -37 -1 -25 -1 -141
0 -183 1 -49 38 -70 122 -70 l62 0 -23 -25 c-34 -36 -102 -66 -163 -72 -65 -6
-151 24 -192 67 l-29 30 75 0 c65 0 78 3 100 24 26 24 27 28 25 131 -1 104 -2
107 -29 129 -23 19 -39 22 -102 21 -41 0 -75 2 -75 6 0 17 88 81 130 94 54 18
146 12 193 -11z m143 -249 c-6 -55 -17 -95 -26 -95 -4 0 -7 12 -6 28 1 24 -3
27 -32 30 -27 3 -35 -1 -39 -17 -7 -26 -39 -28 -51 -3 -4 9 -7 46 -6 81 1 58
3 65 23 68 15 2 24 -4 30 -20 7 -18 17 -24 40 -25 29 -1 31 2 38 41 l7 42 13
-45 c7 -25 12 -63 9 -85z m-478 -16 c2 -109 -7 -118 -29 -26 -13 55 -4 140 14
134 8 -2 13 -39 15 -108z m134 95 c9 -6 10 -105 1 -136 -2 -11 -14 -18 -27
-18 -22 0 -23 4 -25 77 -1 42 -4 80 -7 84 -5 8 43 2 58 -7z"/>
</g>
</svg>
